<?xml version="1.0" encoding="UTF-8"?>
<svg width="106px" height="82px" viewBox="0 0 106 82" version="1.1" xmlns="http://www.w3.org/2000/svg" xmlns:xlink="http://www.w3.org/1999/xlink">
    <title>img_logo_watermark</title>
    <defs>
        <linearGradient x1="0.966005068%" y1="50%" x2="97.6815046%" y2="50%" id="linearGradient-1">
            <stop stop-color="#00D2BE" stop-opacity="0" offset="0%"></stop>
            <stop stop-color="#00D2BE" stop-opacity="0.6" offset="17.1875%"></stop>
            <stop stop-color="#00D2BE" offset="50.3220017%"></stop>
            <stop stop-color="#00D2BE" stop-opacity="0.6" offset="79.8326647%"></stop>
            <stop stop-color="#00D2BE" stop-opacity="0" offset="100%"></stop>
        </linearGradient>
    </defs>
    <g id="Web" stroke="none" stroke-width="1" fill="none" fill-rule="evenodd">
        <g id="SWAG-watermark" transform="translate(-824.000000, -92.000000)">
            <g id="img_watermark_test" transform="translate(824.000000, 92.000000)">
                <g id="swag_icon">
                    <g fill="#00D2BE">
                        <path d="M51.9561545,16.2367471 C52.1081328,15.0603384 52.2221165,14.1126758 52.2970502,13.3937594 C52.3740947,12.6748429 52.4300312,12.0997098 52.4680257,11.6683599 C52.5060203,11.23701 52.53135,10.9167654 52.5450703,10.7076261 C52.5566797,10.4984868 52.5630122,10.3154899 52.5630122,10.1586354 C53.272244,11.0474775 53.8294976,12.0343537 54.234773,13.119264 C54.6400483,14.2041743 55.0579885,15.2433353 55.489649,16.2367471 L51.9561545,16.2367471 Z M83.566576,13.3153321 C83.3639384,12.8316974 83.1116967,12.4068832 82.8066848,12.0408893 C82.5027283,11.6748955 82.173442,11.3873289 81.8188261,11.1781896 C81.4642102,10.9690503 81.1222591,10.9167654 80.7929729,11.0213351 C78.4119802,11.3611865 76.1829658,11.8578924 74.1059297,12.5114528 C72.0288936,13.1650132 69.9771871,13.9754281 67.9508104,14.9426975 C67.5455351,15.1518369 67.292238,15.4590102 67.1919745,15.8642177 C67.0896003,16.2694251 67.0959327,16.7073106 67.2099164,17.1778741 C67.3249555,17.6484376 67.5202054,18.1124655 67.7988322,18.5699578 C68.077459,19.02745 68.3940803,19.4261219 68.7486962,19.7659733 C69.1033122,20.1058247 69.4832578,20.3541777 69.8885331,20.5110322 C70.2938085,20.6678867 70.6610893,20.6678867 70.9903755,20.5110322 C71.4969697,20.1450383 71.9972314,19.870543 72.4911608,19.6875461 C72.9850901,19.5045491 73.4842964,19.3346234 73.991946,19.1777689 C73.3080439,20.1450383 72.4341689,20.9750601 71.3713765,21.6678341 C70.3064733,22.3606081 69.1676918,22.824636 67.9508104,23.0599177 C66.7349844,23.0599177 65.8421121,22.7723512 65.2721937,22.197218 C64.7022752,21.6220849 64.3603241,20.877026 64.2473959,19.9620414 C64.1323568,19.0470569 64.195681,18.0340382 64.4363133,16.9229855 C64.6769455,15.8119329 65.0125642,14.7074158 65.4431692,13.6094343 C65.8737743,12.5114528 66.3487063,11.4984342 66.8679653,10.5703784 C67.3872244,9.64232264 67.861101,8.9168706 68.2927615,8.39402227 C68.7993557,7.76660428 69.3312796,7.26336277 69.8885331,6.88429774 C70.4457867,6.5052327 71.1423537,6.15884569 71.9782341,5.8451367 C72.3328501,5.66213978 72.6937984,5.55757012 73.0610792,5.5314277 C73.42836,5.50528529 73.8652975,5.49221408 74.3718917,5.49221408 C74.7011779,5.46607166 75.0188546,5.60985495 75.3217557,5.92356395 C75.6257122,6.23727294 75.948666,6.57058875 76.2916725,6.92351136 C76.6325682,7.27643398 76.999849,7.56400056 77.3935149,7.7862111 C77.7850699,8.00842163 78.2473371,8.00188603 78.779261,7.76660428 C79.0072284,7.60974979 79.1528742,7.36793244 79.2161985,7.04115224 C79.2795228,6.71437203 79.2795228,6.36798502 79.2161985,6.00199119 C79.1528742,5.63599737 79.045223,5.28307475 78.8932447,4.94322334 C78.7412665,4.60337193 78.5766234,4.35501898 78.3993154,4.19816448 C77.6394241,2.89104367 76.7148897,1.90416746 75.6257122,1.23753585 C74.5365348,0.570904235 73.3777006,0.198374805 72.1492097,0.119947557 C70.9207188,0.041520308 69.679563,0.244124033 68.4257425,0.727758732 C67.1719219,1.21139343 66.0004228,1.93684548 64.9112453,2.90411488 C64.0247055,3.7406722 63.2394845,4.85826049 62.5555824,6.25687975 C61.8727356,7.65549902 61.3070388,9.14561674 60.8648243,10.7272329 C60.4215544,12.3088491 60.104933,13.8773941 59.9149602,15.4328678 C59.8041427,16.3391383 59.7545387,17.16916 59.7503171,17.9381827 C59.319712,16.904468 58.9207691,15.8500572 58.5672086,14.7662362 C58.1619333,13.5244714 57.7693228,12.2696355 57.3883217,11.0017283 C57.0094315,9.7338211 56.5851589,8.49859194 56.1155039,7.29604079 C55.6469042,6.09348965 55.1023155,4.95629455 54.482793,3.88445548 C53.8622152,2.81261642 53.1086563,1.83227582 52.2221165,0.943433666 C51.8421709,0.734294336 51.3408537,0.655867088 50.7213312,0.70815192 C50.099698,0.760436753 49.6004916,0.969576082 49.2194906,1.33556991 C48.6875667,2.38126655 48.3656683,3.52499726 48.2506292,4.76676203 C48.1377009,6.0085268 48.0796537,7.27643398 48.0796537,8.57048358 C48.0796537,9.86453318 48.0553794,11.1455116 48.0047199,12.4134188 C47.9530051,13.6813259 47.7250377,14.8642703 47.3197624,15.9622518 C46.6369156,15.7792548 45.964623,15.5897223 45.3060505,15.3936542 C45.2659451,15.3816723 45.2268952,15.364244 45.1867898,15.3511728 C45.2131749,15.2063002 45.2437816,15.0472672 45.2691114,14.9034839 C45.6237273,13.0212299 45.7630407,11.1847252 45.6870516,9.39396969 C45.610007,7.60321418 45.4706936,5.76670945 45.2691114,3.88445548 C45.1171331,3.20475266 44.8068442,2.48583622 44.3382445,1.72770615 C43.8696449,0.969576082 43.3060589,0.407514134 42.6474865,0.041520308 C42.215826,-0.0369069405 41.8875952,-0.00422892026 41.6596278,0.139554369 C41.430605,0.283337658 41.2606849,0.485941383 41.1467012,0.747365544 C41.0316621,1.00878971 40.9693932,1.30289189 40.9567284,1.62967209 C40.9430081,1.95645229 40.9377311,2.25055447 40.9377311,2.51197864 C41.292347,4.57722951 41.3799456,6.70130083 41.2036931,8.88419258 C41.060158,10.6520735 40.7498691,12.3807407 40.2907681,14.0712837 C40.2010587,14.1333719 40.1102939,14.1878353 40.0248062,14.2760659 C39.4432783,14.6943446 39.1773163,15.2237285 39.2269203,15.8642177 C39.2649149,16.3249778 39.4116161,16.7770237 39.612143,17.2247126 C39.5023809,17.5983313 39.3947297,17.9730393 39.2659703,18.3542828 C39.0886623,18.7202767 38.8913017,19.1843045 38.6770546,19.7463665 C38.461752,20.3084284 38.1008037,20.7724563 37.5942095,21.1384502 C37.5942095,21.2168774 37.5435501,21.2626266 37.4422313,21.2756978 C37.339857,21.288769 37.2195409,21.2756978 37.0812829,21.2364842 C36.9409141,21.1972706 36.820598,21.1319145 36.7192791,21.0404161 C36.6190157,20.9489176 36.5683563,20.8639548 36.5683563,20.7855275 C36.4153226,20.6025306 36.3266687,20.3541777 36.3023944,20.0404687 C36.2770646,19.7267597 36.2643998,19.3999795 36.2643998,19.0601281 C36.4153226,18.5372797 36.3709956,17.9621466 36.1314188,17.3347286 C35.8897312,16.7073106 35.6058274,16.1321775 35.2754857,15.6093291 C35.1752223,15.4263322 34.9915819,15.2237285 34.72562,15.001518 C34.459658,14.7793074 34.1736434,14.5897749 33.8707423,14.4329204 C33.5667858,14.2760659 33.2628293,14.1976387 32.9588728,14.1976387 C32.6549162,14.1976387 32.4132286,14.3283507 32.2359206,14.5897749 C31.7293265,15.6093291 31.2290647,16.6288834 30.7361908,17.6484376 C30.2422615,18.6679918 29.7409443,19.5960476 29.2354055,20.4326049 C29.0580976,20.0666111 28.9557233,19.6483324 28.931449,19.1777689 C28.9050639,18.7072055 28.8923991,18.2104995 28.8923991,17.6876512 C28.7150911,16.1191062 28.6274925,14.6224529 28.6274925,13.1976912 C28.6274925,11.7729296 28.7150911,10.2762762 28.8923991,8.70773127 C28.9430585,8.31559502 28.8807896,7.88424516 28.7034816,7.41368167 C28.5261737,6.94311818 28.2855414,6.4986971 27.9815849,6.08041844 C27.6776284,5.66213978 27.3420098,5.30268156 26.974729,5.00204378 C26.6063928,4.70140599 26.2528323,4.51187347 25.9108812,4.43344622 C25.5689301,4.35501898 25.2713061,4.42691062 25.018009,4.64912116 C24.7647119,4.87133169 24.6127336,5.29614596 24.5620742,5.92356395 C24.3847662,8.01495724 24.3087771,10.0932793 24.3341068,12.1585302 C24.3414947,12.7500024 24.3889879,13.3414745 24.4217054,13.934036 C23.763133,13.4286159 23.0612889,12.9700344 22.2634031,12.6094869 C21.1362311,12.0997098 19.9583996,11.6879667 18.7309641,11.3742577 C17.5014178,11.0605487 16.3805782,10.7337685 15.3673898,10.3939171 C14.8354659,10.1847778 14.392196,9.98870966 14.0375801,9.80571275 C13.6819088,9.62271583 13.3410131,9.34822046 13.0127823,8.98222664 C13.1637051,8.98222664 13.3156834,8.9299418 13.4676616,8.82537214 C13.5436508,8.77308731 13.606975,8.70773127 13.6576345,8.62930402 C14.6961525,7.92345878 15.7863854,7.33525442 16.9262223,6.86469093 C18.0650038,6.39412744 19.2428353,6.15884569 20.4586613,6.15884569 C20.9145961,6.10656086 21.2312175,5.91702834 21.4085254,5.59024814 C21.5858334,5.26346794 21.6681549,4.87133169 21.6554901,4.41383941 C21.6417698,3.95634713 21.5415064,3.46617683 21.3515336,2.9433285 C21.1615608,2.42048018 20.9145961,1.94991669 20.6106396,1.53163803 C20.3066831,1.11335937 19.964732,0.773507961 19.5847864,0.512083799 C19.2048407,0.250659637 18.8122303,0.146089973 18.4069549,0.198374805 C17.0391506,0.198374805 15.696676,0.433656551 14.3795312,0.904220041 C13.0613309,1.37478353 11.7959008,1.9760591 10.5800748,2.70804676 C9.92150238,3.15246783 9.40224334,3.66878055 9.02229771,4.25698491 C8.64235207,4.84518928 8.40066443,5.47260727 8.300401,6.13923888 C8.19908216,6.80587049 8.22441187,7.50518012 8.37639012,8.23716778 C8.52942378,8.96915543 8.81966003,9.68807187 9.25026509,10.3939171 C10.1114752,11.7794652 11.1246636,12.8839822 12.2898302,13.7074684 C13.4549968,14.5309545 14.7088174,15.2825489 16.051292,15.9622518 C16.7098644,16.3282456 17.3811017,16.6092766 18.0650038,16.8053447 C18.748906,17.0014128 19.4201433,17.1909453 20.0787157,17.3739422 C20.2813534,17.3739422 20.4649938,17.4327627 20.6296369,17.5504035 C20.79428,17.6680444 20.9652555,17.7268648 21.1425635,17.7268648 C20.7879476,17.9098618 20.5093208,18.0863231 20.3066831,18.2562488 C20.10299,18.4261745 19.9394023,18.615707 19.8127538,18.8248463 C19.2808299,19.1646977 18.748906,19.4849423 18.2169821,19.7855801 C17.6850582,20.0862179 17.0634249,20.3411065 16.3563039,20.5502458 C15.696676,20.8900972 15.0381036,21.1449858 14.3795312,21.3149115 C13.7199033,21.4848372 13.1383754,21.5698 12.6317812,21.5698 L10.5800748,21.5698 C10.5051411,21.5698 10.3774371,21.5501932 10.2011846,21.5109796 C10.0228212,21.471766 9.84551325,21.4325523 9.66820529,21.3933387 C9.49089732,21.3541251 9.35791635,21.3149115 9.26926237,21.2756978 C9.18060839,21.2364842 9.17427596,21.2168774 9.25026509,21.2168774 C9.07295712,21.0600229 8.84498974,20.8639548 8.56636294,20.628673 C8.28773614,20.3933913 8.00277692,20.2103944 7.71148526,20.0796823 C7.42124901,19.9489702 7.13523438,19.903221 6.85766299,19.9424346 C6.57798078,19.9816482 6.3500134,20.184252 6.17270544,20.5502458 C5.92046375,20.8900972 5.78009495,21.2495554 5.75582064,21.6286205 C5.72943553,22.0076855 5.77376252,22.3867505 5.88880161,22.7658156 C6.0017299,23.1448806 6.14843113,23.5043388 6.32468369,23.8441902 C6.50304706,24.1840416 6.68035502,24.4846794 6.85766299,24.7461036 C7.54050973,25.6088033 8.35106042,26.2688993 9.28825965,26.7263916 C10.2254589,27.1838839 11.2259824,27.4779861 12.2898302,27.6086982 C13.353678,27.7394102 14.4428554,27.7328746 15.5573626,27.5890913 C16.6718698,27.4453081 17.7357176,27.1904195 18.748906,26.8244257 C19.5847864,26.5630015 20.528318,26.1512585 21.579501,25.5891965 C22.6306839,25.0271346 23.5932128,24.3539673 24.4670878,23.5696949 C24.8839726,23.1949869 25.2544196,22.7974043 25.5847612,22.3791257 C25.7114098,22.8485999 25.8507232,23.3115385 26.0058676,23.765763 C26.5884509,25.46502 27.5499245,27.0074226 28.8923991,28.3929706 C29.069707,28.4713979 29.2797325,28.5814139 29.5203648,28.7262864 C29.760997,28.8700697 29.9942414,28.981175 30.2232642,29.0596023 C30.4512316,29.1380295 30.6602017,29.1641719 30.8501745,29.1380295 C31.0401473,29.1118871 31.1731283,28.9681038 31.2491174,28.7066796 C31.7546562,27.8439799 32.2422531,26.9878158 32.7119081,26.1381872 C33.1805077,25.2885587 33.5921155,24.4323946 33.9467314,23.5696949 L34.592639,24.2363265 C34.9979143,24.837602 35.5351152,25.3931284 36.2074079,25.9029055 C36.8786452,26.4126826 37.5678244,26.7656052 38.2781117,26.9616734 C38.9862881,27.1577415 39.6701903,27.1446703 40.3287627,26.9224597 C40.9873351,26.7002492 41.5319239,26.1577941 41.9635843,25.2950943 C42.4701785,24.5892491 42.8944511,23.8180478 43.2353468,22.9814905 C43.5276939,22.2680204 43.7799355,21.5196937 44.0079029,20.7484924 C44.2685878,20.7713671 44.527162,20.7953309 44.7941793,20.8051343 C45.1614601,20.8182056 45.5276855,20.8574192 45.8960217,20.9227752 C46.262247,20.9881313 46.6369156,21.1384502 47.0158059,21.3737319 C47.0664653,21.9227226 47.0221383,22.6612459 46.8828249,23.5893017 C46.7445669,24.5173574 46.5915332,25.5303761 46.4279455,26.6283575 C46.262247,27.726339 46.1292661,28.8439273 46.0290026,29.9811224 C45.9266284,31.1183175 45.9392932,32.1705498 46.0669972,33.1378192 C46.1925903,34.1039993 46.4722725,34.9416459 46.9028776,35.6474911 C47.3324272,36.3533364 48.0047199,36.8108286 48.9155341,37.019968 C49.3208094,37.2029649 49.6384862,37.2487141 49.8664535,37.1572157 C50.0933655,37.0657172 50.259064,36.9023271 50.3593275,36.6670454 C50.4606463,36.4317636 50.5186936,36.1572682 50.530303,35.8435592 C50.5429679,35.5298503 50.5503557,35.2553549 50.5503557,35.0200731 C50.4226517,33.8959492 50.392045,32.7914322 50.4543139,31.7065219 C50.5186936,30.6216116 50.618957,29.5497726 50.7582704,28.4910047 C50.8975838,27.4322368 51.044285,26.3800046 51.1952079,25.3343079 C51.3482415,24.2886113 51.4611698,23.2167722 51.5382143,22.1187908 C52.526073,22.1187908 53.5899208,22.1710756 54.7297577,22.2756453 C55.8695946,22.3802149 57.0220964,22.4324998 58.1862076,22.4324998 C58.3392412,22.6939239 58.5154938,22.9618837 58.7181315,23.2363791 C58.9218245,23.5108744 59.1487365,23.765763 59.403089,24.0010447 C59.6553307,24.2363265 59.9286805,24.425859 60.2199721,24.5696423 C60.5102084,24.7134256 60.8204973,24.7853172 61.1508389,24.7853172 C61.3978036,24.70689 61.5740562,24.5696423 61.714425,24.4018951 C62.2843434,25.2308276 62.9492483,25.9617259 63.715472,26.5891439 C64.7655995,27.4518437 65.9687607,28.0531192 67.3249555,28.3929706 C68.6790395,28.732822 70.1165005,28.7066796 71.6362831,28.3145434 C72.7254606,27.974692 73.8209705,27.4257012 74.9228128,26.6675712 C76.0246552,25.9094411 76.9428571,25.0271346 77.6774187,24.0206515 C78.4119802,23.0141685 78.8869123,21.9488651 79.1022148,20.8247412 C79.3175173,19.7006173 79.0832175,18.615707 78.3993154,17.5700103 C79.0578878,17.3870134 79.786117,17.2170877 80.5840028,17.0602332 C81.3818886,16.9033787 82.1227826,16.7465242 82.8066848,16.5896697 C83.2626195,16.4851001 83.5729085,16.2563539 83.7375516,15.9034313 C83.9021947,15.5505087 83.965519,15.1518369 83.9275244,14.7074158 C83.8895298,14.2629947 83.7692137,13.7989668 83.566576,13.3153321 L83.566576,13.3153321 Z" id="Fill-1"></path>
                        <path d="M89.6122109,35.8408874 C88.738336,34.7537986 87.4634073,33.8290107 85.7884803,33.0676128 C84.1135533,32.3073042 82.1462792,31.6962252 79.8887689,31.2376437 C77.6302032,30.7779728 75.1310052,30.4403 72.391175,30.2224465 C69.6502894,30.004593 66.7732566,29.89022 63.7590212,29.878238 C60.7458413,29.8662561 57.6503397,29.9446833 54.4725167,30.1135198 C53.8171104,30.1483763 53.169092,30.1941256 52.516852,30.2333392 C52.467248,30.770348 52.4007575,31.3008212 52.3712062,31.8443656 C52.3110481,32.9292758 52.3405995,34.0337929 52.461971,35.1579168 C52.461971,35.3823059 52.4556386,35.6469979 52.4440291,35.9421893 C55.6777886,35.826727 58.8946617,35.7559246 62.0935929,35.73305 C65.3801226,35.7079968 68.5663889,35.7439426 71.6534472,35.8408874 C74.7394501,35.9378322 77.6945828,36.1001331 80.5167346,36.3299685 C83.3399417,36.5598039 85.9436247,36.8680665 88.3277836,37.2547565 C88.6739563,37.3026842 88.9610263,37.2907023 89.1889937,37.2188106 C89.4159057,37.1458297 89.5847704,37.036903 89.6945325,36.8920304 C89.8032392,36.7471579 89.8528432,36.5783214 89.8443999,36.3844318 C89.8349013,36.1916315 89.7578568,36.0097239 89.6122109,35.8408874" id="Fill-4"></path>
                        <path d="M44.3293034,33.247707 C44.2216522,32.400257 44.2153198,31.4765583 44.2765332,30.4994855 C43.2359043,30.5757342 42.1942201,30.6498044 41.1599236,30.7380351 C38.0232613,31.0038163 34.9594219,31.3175253 31.9684054,31.6802513 C28.9784444,32.0429773 26.1805669,32.4231316 23.5758285,32.8218035 C20.9710901,33.2204753 18.6090947,33.6137009 16.4898424,34.0003908 C14.3705901,34.3859914 12.596455,34.7487174 11.1653265,35.0874796 C9.9178383,35.3772247 8.688292,35.6735054 7.47774299,35.9752324 C6.26719398,36.2780488 5.08408548,36.6102753 3.92841751,36.9719121 C3.65295692,37.044893 3.2993964,37.1418378 2.86879135,37.2627464 C2.43818629,37.3836551 2.01602448,37.5100101 1.60230589,37.6429007 C1.18964272,37.7757914 0.82763896,37.9271995 0.516294619,38.096036 C0.203894874,38.2648724 0.0381963611,38.44678 0.0202544839,38.6395804 C-0.0525684296,38.9783425 0.070913902,39.2136242 0.391756883,39.3465149 C0.712599865,39.4794055 1.11154278,39.5458508 1.58858564,39.5458508 C2.06668389,39.5458508 2.5563916,39.5153513 3.06087497,39.4554416 C3.56535835,39.3955319 3.9737999,39.3410685 4.28514425,39.2920515 C5.53368782,39.1711428 6.78117599,39.0447878 8.02866416,38.9118972 C9.27615233,38.7790066 10.5236405,38.6395804 11.7700733,38.4947078 C14.2101686,38.2528905 16.8613448,38.0056268 19.7236019,37.7518275 C22.5848036,37.4980282 25.5800417,37.2562108 28.7082608,37.0263754 C31.8364799,36.79654 35.0554637,36.5863114 38.3673232,36.3924218 C40.6849916,36.2573527 43.0227126,36.1625864 45.3572675,36.0623738 C45.2802229,35.9632505 45.1989568,35.8684842 45.1335217,35.757379 C44.7187477,35.0515337 44.450675,34.2138872 44.3293034,33.247707" id="Fill-6"></path>
                    </g>
                    <rect id="Rectangle" fill="url(#linearGradient-1)" opacity="0.795200893" x="0" y="43.3823529" width="90" height="14.5764706"></rect>
                    <text id="swag.live" font-family="NotoSans-Regular, Noto Sans" font-size="10.4089069" font-weight="normal" letter-spacing="0.874348141" fill="#FFFFFF">
                        <tspan x="19.5672815" y="54.3858055">swag.live</tspan>
                    </text>
                </g>
                <text id="@abcheuyuqdw" font-family="NotoSans-Regular, Noto Sans" font-size="14" font-weight="normal" line-spacing="19" fill="#FFFFFF">
                    <tspan x="0" y="78">@abcheuyuqdw</tspan>
                </text>
            </g>
        </g>
    </g>
</svg>